<!DOCTYPE svg PUBLIC "-//W3C//DTD SVG 20010904//EN" "http://www.w3.org/TR/2001/REC-SVG-20010904/DTD/svg10.dtd">
<svg version="1.0" xmlns="http://www.w3.org/2000/svg" width="71px" height="70px" viewBox="0 0 710 700" preserveAspectRatio="xMidYMid meet">
<g id="layer101" fill="#241239" stroke="none">
 <path d="M435 605 c-25 -9 -43 -11 -49 -5 -6 6 -32 10 -59 10 -42 0 -54 -5 -83 -34 -19 -19 -48 -38 -65 -41 -39 -9 -98 -61 -115 -102 -21 -49 -18 -116 7 -147 25 -31 77 -61 102 -57 21 3 23 -22 3 -39 -20 -16 -76 -104 -76 -118 0 -27 27 -9 59 38 51 75 56 77 90 41 36 -39 88 -61 142 -61 33 0 47 6 75 34 23 23 34 43 34 63 0 21 9 36 28 50 39 29 63 84 61 135 -1 24 3 53 9 65 7 12 12 42 12 67 0 88 -82 136 -175 101z"/>
 </g>
<g id="layer102" fill="#4e3c59" stroke="none">
 <path d="M296 575 c-15 -8 -37 -26 -48 -40 -11 -14 -26 -25 -35 -25 -31 0 -85 -34 -109 -69 -48 -71 -26 -144 52 -177 43 -18 68 -18 84 2 11 13 10 23 -8 60 -26 52 -26 54 -9 54 7 0 21 -17 31 -37 l18 -37 50 52 c33 35 48 58 45 70 -18 56 -19 62 -8 62 6 0 16 -11 23 -24 10 -23 12 -24 33 -10 42 27 35 0 -11 -47 l-47 -48 34 -8 c19 -5 32 -13 29 -19 -3 -5 -7 -8 -10 -8 -65 17 -74 14 -120 -41 -26 -31 -44 -62 -42 -72 9 -45 82 -93 142 -93 38 0 80 39 80 75 0 17 14 41 40 68 45 46 55 73 46 118 -3 19 0 42 9 59 50 97 -18 173 -122 136 -38 -13 -47 -13 -78 -1 -41 18 -34 18 -69 0z"/>
 </g>
<g id="layer103" fill="#de672d" stroke="none">
 <path d="M296 575 c-15 -8 -37 -26 -48 -40 -11 -14 -26 -25 -35 -25 -31 0 -85 -34 -109 -69 -48 -71 -26 -144 52 -177 43 -18 68 -18 84 2 11 13 10 23 -8 60 -26 52 -26 54 -9 54 7 0 21 -17 31 -37 l18 -37 50 52 c33 35 48 58 45 70 -18 56 -19 62 -8 62 6 0 16 -11 23 -24 10 -23 12 -24 33 -10 42 27 35 0 -11 -47 l-47 -48 34 -8 c19 -5 32 -13 29 -19 -3 -5 -7 -8 -10 -8 -65 17 -74 14 -120 -41 -26 -31 -44 -62 -42 -72 9 -45 82 -93 142 -93 38 0 80 39 80 75 0 17 14 41 40 68 45 46 55 73 46 118 -3 19 0 42 9 59 50 97 -18 173 -122 136 -38 -13 -47 -13 -78 -1 -41 18 -34 18 -69 0z"/>
 </g>

</svg>