<!DOCTYPE svg PUBLIC "-//W3C//DTD SVG 20010904//EN" "http://www.w3.org/TR/2001/REC-SVG-20010904/DTD/svg10.dtd">
<svg version="1.0" xmlns="http://www.w3.org/2000/svg" width="75px" height="69px" viewBox="0 0 750 690" preserveAspectRatio="xMidYMid meet">
<g id="layer101" fill="#241239" stroke="none">
 <path d="M221 532 c-15 -15 -30 -33 -32 -41 -4 -10 -16 -8 -57 13 -28 14 -58 26 -67 26 -29 0 -15 -31 22 -47 61 -24 65 -31 44 -62 -26 -37 -32 -72 -20 -114 11 -41 33 -57 78 -57 28 0 31 -3 31 -33 0 -60 66 -96 120 -67 17 9 20 6 26 -17 13 -55 31 -73 75 -73 29 0 47 7 65 25 21 21 31 24 68 19 39 -6 48 -3 70 19 32 32 34 74 6 110 -24 30 -25 41 -5 57 45 37 -11 130 -79 130 -31 0 -38 4 -50 34 -17 41 -48 60 -89 53 -25 -3 -37 2 -58 24 -22 24 -35 29 -74 29 -37 0 -52 -5 -74 -28z"/>
 </g>
<g id="layer102" fill="#a64d31" stroke="none">
 <path d="M231 504 c-12 -15 -21 -33 -21 -41 0 -20 29 -28 51 -15 27 17 30 15 23 -12 -5 -20 2 -27 43 -51 26 -16 64 -41 83 -57 40 -32 50 -34 91 -12 41 21 50 9 15 -20 l-29 -22 27 -22 c15 -12 25 -26 22 -31 -4 -5 -39 14 -79 44 -39 30 -76 53 -82 52 -5 -2 -12 -14 -15 -27 -3 -13 -12 -26 -19 -28 -9 -3 -11 2 -7 17 3 11 8 30 11 40 6 20 -34 53 -117 96 l-38 20 -26 -26 c-29 -30 -37 -87 -15 -113 8 -9 28 -16 47 -16 36 0 54 -21 54 -62 0 -13 5 -29 12 -36 14 -14 57 -16 77 -3 21 14 47 -4 56 -36 3 -15 11 -34 17 -40 16 -20 55 -15 78 9 17 19 32 23 78 23 52 0 57 2 66 26 7 21 5 33 -12 57 -26 35 -28 65 -7 82 19 16 19 40 -1 68 -13 20 -24 23 -62 21 -43 -3 -46 -1 -55 26 -18 55 -36 67 -89 60 -39 -6 -48 -4 -48 8 0 27 -30 47 -70 47 -30 0 -43 -6 -59 -26z"/>
 </g>
<g id="layer103" fill="#de672d" stroke="none">
 <path d="M242 507 c-12 -13 -22 -31 -22 -40 0 -26 29 -33 45 -11 11 15 16 16 26 7 10 -10 10 -15 0 -27 -13 -16 -7 -36 10 -36 5 0 44 -23 85 -51 l75 -51 34 16 c18 9 38 16 44 16 18 0 13 -20 -6 -27 -42 -15 -45 -25 -16 -49 20 -16 25 -26 17 -34 -8 -8 -24 0 -60 30 -27 23 -61 48 -76 56 -26 13 -27 13 -33 -16 -4 -17 -13 -30 -21 -30 -17 0 -18 23 -3 52 13 24 -3 40 -73 77 -20 11 -46 26 -57 33 -41 25 -92 -56 -68 -109 10 -23 25 -29 77 -35 21 -3 26 -9 31 -46 3 -24 12 -48 20 -53 18 -11 50 -11 68 0 25 16 51 0 61 -41 6 -21 18 -42 26 -45 24 -9 62 6 69 26 7 24 30 30 69 19 63 -17 89 27 50 84 l-27 39 22 30 c14 19 20 37 16 50 -10 30 -50 52 -81 45 -32 -8 -54 8 -54 40 0 34 -34 54 -73 43 -48 -14 -56 -11 -63 19 -9 33 -20 42 -60 42 -19 0 -39 -9 -52 -23z"/>
 </g>

</svg>