<!DOCTYPE svg PUBLIC "-//W3C//DTD SVG 20010904//EN" "http://www.w3.org/TR/2001/REC-SVG-20010904/DTD/svg10.dtd">
<svg version="1.0" xmlns="http://www.w3.org/2000/svg" width="74px" height="72px" viewBox="0 0 740 720" preserveAspectRatio="xMidYMid meet">
<g id="layer101" fill="#241239" stroke="none">
 <path d="M399 642 c-31 -16 -40 -16 -79 -4 -25 7 -61 10 -80 7 -51 -9 -115 -50 -139 -89 -27 -43 -28 -118 -2 -169 13 -25 17 -50 14 -79 -6 -52 20 -91 72 -108 19 -6 35 -17 35 -24 0 -8 9 -25 21 -40 33 -42 83 -36 195 24 108 58 131 62 140 22 3 -15 8 -34 11 -42 9 -28 22 24 14 61 -5 26 -1 49 18 94 34 82 37 219 5 262 -12 15 -32 30 -45 31 -13 2 -33 13 -43 24 -17 19 -75 48 -94 48 -4 0 -24 -8 -43 -18z"/>
 </g>
<g id="layer102" fill="#fba100" stroke="none">
 <path d="M399 611 c-33 -18 -40 -18 -75 -6 -22 8 -48 14 -60 15 -35 0 -124 -50 -139 -81 -21 -40 -19 -108 5 -146 15 -25 18 -43 13 -80 -6 -55 1 -65 63 -86 29 -10 40 -20 42 -38 10 -65 67 -67 173 -5 42 25 88 48 103 52 14 3 26 11 26 17 0 21 -126 133 -183 162 -57 30 -57 30 -89 12 -20 -11 -35 -14 -41 -8 -6 6 -1 13 12 20 30 17 26 28 -14 41 -34 11 -44 23 -27 34 5 3 57 -19 115 -48 l107 -54 0 69 c0 39 4 69 10 69 6 0 10 -32 10 -76 l0 -75 64 -64 64 -64 10 27 c25 67 32 99 32 151 0 68 -17 105 -50 109 -14 2 -38 16 -55 32 -41 39 -72 45 -116 21z"/>
 </g>

</svg>